<?xml version="1.0" encoding="UTF-8" standalone="no"?>
<svg
   height="40"
   viewBox="0 -960 800 800"
   width="40"
   version="1.1"
   id="svg4"
   sodipodi:docname="gear.svg"
   inkscape:version="1.2.2 (b0a8486541, 2022-12-01)"
   xmlns:inkscape="http://www.inkscape.org/namespaces/inkscape"
   xmlns:sodipodi="http://sodipodi.sourceforge.net/DTD/sodipodi-0.dtd"
   xmlns="http://www.w3.org/2000/svg"
   xmlns:svg="http://www.w3.org/2000/svg">
  <defs
     id="defs8" />
  <sodipodi:namedview
     id="namedview6"
     pagecolor="#505050"
     bordercolor="#eeeeee"
     borderopacity="1"
     inkscape:showpageshadow="0"
     inkscape:pageopacity="0"
     inkscape:pagecheckerboard="0"
     inkscape:deskcolor="#505050"
     showgrid="false"
     inkscape:zoom="21.395833"
     inkscape:cx="19.957157"
     inkscape:cy="20.003895"
     inkscape:window-width="2560"
     inkscape:window-height="1366"
     inkscape:window-x="0"
     inkscape:window-y="0"
     inkscape:window-maximized="1"
     inkscape:current-layer="svg4" />
  <path
     d="m 308,-160 -20,-126 q -19,-7 -40,-19 -21,-12 -37,-25 L 93,-276 0,-440 108,-519 q -2,-9 -2.5,-20.5 -0.5,-11.5 -0.5,-20.5 0,-9 0.5,-20.5 0.5,-11.5 2.5,-20.5 l -108,-79 93,-164 118,54 q 16,-13 37,-25 21,-12 40,-18 l 20,-127 h 184 l 20,126 q 19,7 40.5,18.5 21.5,11.5 36.5,25.5 l 118,-54 93,164 -108,77 q 2,10 2.5,21.5 0.5,11.5 0.5,21.5 0,10 -0.5,21 -0.5,11 -2.5,21 l 108,78 -93,164 -118,-54 q -16,13 -36.5,25.5 Q 532,-292 512,-286 l -20,126 z m 92,-270 q 54,0 92,-38 38,-38 38,-92 0,-54 -38,-92 -38,-38 -92,-38 -54,0 -92,38 -38,38 -38,92 0,54 38,92 38,38 92,38 z m 0,-60 q -29,0 -49.5,-20.5 Q 330,-531 330,-560 q 0,-29 20.5,-49.5 20.5,-20.5 49.5,-20.5 29,0 49.5,20.5 20.5,20.5 20.5,49.5 0,29 -20.5,49.5 Q 429,-490 400,-490 Z m 0,-70 z m -44,340 h 88 l 14,-112 q 33,-8 62.5,-25 29.5,-17 53.5,-41 l 106,46 40,-72 -94,-69 q 4,-17 6.5,-33.5 2.5,-16.5 2.5,-33.5 0,-17 -2,-33.5 -2,-16.5 -7,-33.5 l 94,-69 -40,-72 -106,46 q -23,-26 -52,-43.5 -29,-17.5 -64,-22.5 l -14,-112 h -88 l -14,112 q -34,7 -63.5,24 -29.5,17 -52.5,42 l -106,-46 -40,72 94,69 q -4,17 -6.5,33.5 -2.5,16.5 -2.5,33.5 0,17 2.5,33.5 2.5,16.5 6.5,33.5 l -94,69 40,72 106,-46 q 24,24 53.5,41 29.5,17 62.5,25 z"
     id="path2" />
</svg>
