<?xml version="1.0" encoding="UTF-8" standalone="no"?>
<svg
   height="40"
   viewBox="0 -960 800 800"
   width="40"
   version="1.1"
   id="svg4"
   sodipodi:docname="inventory.svg"
   inkscape:version="1.2.2 (b0a8486541, 2022-12-01)"
   xmlns:inkscape="http://www.inkscape.org/namespaces/inkscape"
   xmlns:sodipodi="http://sodipodi.sourceforge.net/DTD/sodipodi-0.dtd"
   xmlns="http://www.w3.org/2000/svg"
   xmlns:svg="http://www.w3.org/2000/svg">
  <defs
     id="defs8" />
  <sodipodi:namedview
     id="namedview6"
     pagecolor="#505050"
     bordercolor="#eeeeee"
     borderopacity="1"
     inkscape:showpageshadow="0"
     inkscape:pageopacity="0"
     inkscape:pagecheckerboard="0"
     inkscape:deskcolor="#505050"
     showgrid="false"
     inkscape:zoom="21.395833"
     inkscape:cx="19.957157"
     inkscape:cy="20.003895"
     inkscape:window-width="1920"
     inkscape:window-height="1050"
     inkscape:window-x="0"
     inkscape:window-y="0"
     inkscape:window-maximized="1"
     inkscape:current-layer="svg4" />
  <path
     d="M 40,-222 V -714 Q 26,-716 13,-734 0,-752 0,-773 v -127 q 0,-23 18,-41.5 18,-18.5 42,-18.5 h 680 q 23,0 41.5,18.5 18.5,18.5 18.5,41.5 v 127 q 0,21 -13,39 -13,18 -27,20 v 492 q 0,23 -18.5,42.5 Q 723,-160 700,-160 H 100 Q 76,-160 58,-179.5 40,-199 40,-222 Z m 60,-491 v 493 h 600 v -493 z m 640,-60 V -900 H 60 v 127 z m -460,270 h 240 v -60 H 280 Z m -180,283 v -493 z"
     id="path2"
     style="fill:#ffffff" />
</svg>
