<?xml version="1.0" encoding="UTF-8" standalone="no"?>
<svg
   height="31.049999"
   viewBox="0 -960 640 620.99998"
   width="32"
   version="1.1"
   id="svg4"
   sodipodi:docname="user.svg"
   inkscape:version="1.2.2 (b0a8486541, 2022-12-01)"
   inkscape:export-filename="user_white.png"
   inkscape:export-xdpi="309.17874"
   inkscape:export-ydpi="309.17874"
   xmlns:inkscape="http://www.inkscape.org/namespaces/inkscape"
   xmlns:sodipodi="http://sodipodi.sourceforge.net/DTD/sodipodi-0.dtd"
   xmlns="http://www.w3.org/2000/svg"
   xmlns:svg="http://www.w3.org/2000/svg">
  <defs
     id="defs8" />
  <sodipodi:namedview
     id="namedview6"
     pagecolor="#505050"
     bordercolor="#eeeeee"
     borderopacity="1"
     inkscape:showpageshadow="0"
     inkscape:pageopacity="0"
     inkscape:pagecheckerboard="0"
     inkscape:deskcolor="#505050"
     showgrid="false"
     inkscape:zoom="21.395833"
     inkscape:cx="15.306719"
     inkscape:cy="15.119766"
     inkscape:window-width="1826"
     inkscape:window-height="1233"
     inkscape:window-x="0"
     inkscape:window-y="0"
     inkscape:window-maximized="0"
     inkscape:current-layer="svg4" />
  <path
     d="m 320,-660 q -66,0 -108,-42 -42,-42 -42,-108 0,-66 42,-108 42,-42 108,-42 66,0 108,42 42,42 42,108 0,66 -42,108 -42,42 -108,42 z M 0,-339 v -94 q 0,-38 19,-65 19,-27 49,-41 67,-30 128.5,-45 61.5,-15 123.5,-15 62,0 123,15.5 61,15.5 127.921,44.694 31.301,14.126 50.19,40.966 Q 640,-471 640,-433 v 94 z m 60,-60 h 520 v -34 q 0,-16 -9.5,-30.5 Q 561,-478 547,-485 483,-516 430,-527.5 377,-539 320,-539 q -57,0 -111,11.5 -54,11.5 -117,42.5 -14,7 -23,21.5 -9,14.5 -9,30.5 z m 260,-321 q 39,0 64.5,-25.5 Q 410,-771 410,-810 410,-849 384.5,-874.5 359,-900 320,-900 q -39,0 -64.5,25.5 -25.5,25.5 -25.5,64.5 0,39 25.5,64.5 25.5,25.5 64.5,25.5 z m 0,-90 z m 0,411 z"
     id="path2"
     style="fill:#ffffff" />
</svg>
