<?xml version="1.0" encoding="UTF-8" standalone="no"?>
<svg
   version="1.0"
   width="66.666664"
   height="66.666664"
   viewBox="0 0 49.999998 49.999998"
   preserveAspectRatio="xMidYMid meet"
   id="svg986"
   sodipodi:docname="cam360-a.svg"
   inkscape:version="1.1.1 (3bf5ae0d25, 2021-09-20)"
   xmlns:inkscape="http://www.inkscape.org/namespaces/inkscape"
   xmlns:sodipodi="http://sodipodi.sourceforge.net/DTD/sodipodi-0.dtd"
   xmlns="http://www.w3.org/2000/svg"
   xmlns:svg="http://www.w3.org/2000/svg">
  <defs
     id="defs990" />
  <sodipodi:namedview
     id="namedview988"
     pagecolor="#ffffff"
     bordercolor="#666666"
     borderopacity="1.0"
     inkscape:pageshadow="2"
     inkscape:pageopacity="0.0"
     inkscape:pagecheckerboard="0"
     inkscape:document-units="px"
     showgrid="false"
     units="px"
     inkscape:zoom="1.9673913"
     inkscape:cx="183.74586"
     inkscape:cy="184"
     inkscape:window-width="1628"
     inkscape:window-height="932"
     inkscape:window-x="1709"
     inkscape:window-y="9"
     inkscape:window-maximized="0"
     inkscape:current-layer="svg986" />
  <g
     transform="matrix(0.02008251,0,0,-0.02008251,-2.5674559,53.27867)"
     fill="#000000"
     stroke="none"
     id="g984">
    <path
       d="m 1265,2392 -40,-7 -3,-52 -3,-53 h 160 161 v 49 c 0,28 -5,53 -10,56 -15,9 -219,15 -265,7 z"
       id="path974" />
    <path
       d="m 1109,2346 c -71,-30 -157,-85 -214,-137 l -44,-41 -46,27 c -25,15 -47,26 -49,24 -13,-15 -96,-151 -96,-158 0,-4 17,-20 39,-35 l 38,-27 -30,-87 c -29,-81 -31,-97 -31,-222 0,-120 3,-143 26,-210 l 27,-75 -35,-30 -35,-30 56,-77 c 31,-43 59,-78 63,-78 4,0 18,9 32,19 l 24,19 58,-54 c 75,-68 171,-125 273,-160 72,-25 94,-28 215,-28 121,0 143,3 215,28 105,36 200,93 281,168 l 65,61 30,-22 c 17,-13 32,-21 33,-19 18,21 108,170 105,172 -2,2 -19,11 -36,20 -18,9 -33,20 -33,24 0,4 9,36 20,71 45,144 36,320 -25,471 l -35,85 23,19 c 12,10 30,24 40,31 17,12 15,18 -33,86 -29,41 -56,77 -59,82 -4,4 -25,-6 -47,-23 -21,-16 -42,-30 -46,-30 -5,0 -35,20 -69,45 -57,42 -155,94 -206,110 -22,6 -23,4 -23,-59 v -66 h -200 -200 v 65 c 0,36 -3,65 -7,65 -5,-1 -33,-11 -64,-24 z m 386,-230 c 80,-21 146,-60 201,-117 162,-172 178,-377 44,-568 -46,-66 -80,-95 -150,-131 -154,-79 -335,-61 -476,47 -47,35 -114,136 -140,211 -111,314 198,645 521,558 z"
       id="path976" />
    <path
       d="m 1295,2017 c -97,-33 -172,-98 -214,-187 -37,-79 -37,-201 0,-280 33,-70 99,-136 169,-169 46,-22 69,-26 140,-26 71,0 94,4 140,26 70,33 136,99 169,169 37,79 37,201 0,280 -33,70 -99,136 -168,168 -66,30 -175,39 -236,19 z m 92,-117 c -56,-35 -119,-127 -138,-200 l -13,-50 h -43 -43 v 50 c 0,129 101,229 229,230 h 55 z"
       id="path978" />
    <path
       d="m 2180,1510 c 0,-5 4,-10 9,-10 4,0 47,-36 94,-81 186,-174 202,-328 50,-484 -108,-111 -414,-235 -640,-260 -110,-12 -103,-5 -103,-95 v -80 h 31 c 47,0 265,46 361,76 251,79 430,211 524,387 36,66 39,78 39,152 0,65 -5,89 -24,125 -51,97 -134,173 -264,245 -68,38 -77,40 -77,25 z"
       id="path980" />
    <path
       d="m 513,1481 c -117,-65 -196,-137 -249,-227 -26,-44 -29,-58 -29,-139 0,-82 3,-96 33,-152 C 375,756 635,598 983,528 l 107,-21 v -71 c 0,-88 9,-105 47,-90 42,16 292,193 303,215 7,12 7,25 1,37 -5,10 -78,64 -162,121 -176,120 -182,121 -187,22 -4,-73 0,-72 -147,-37 -196,48 -371,125 -480,214 -75,60 -125,149 -125,223 0,100 70,219 182,306 53,42 70,63 51,63 -5,0 -32,-13 -60,-29 z"
       id="path982" />
  </g>
</svg>
