<?xml version="1.0" encoding="UTF-8" standalone="no"?>
<!-- Generator: Adobe Illustrator 19.2.0, SVG Export Plug-In . SVG Version: 6.00 Build 0)  -->

<svg
   xmlns:dc="http://purl.org/dc/elements/1.1/"
   xmlns:cc="http://creativecommons.org/ns#"
   xmlns:rdf="http://www.w3.org/1999/02/22-rdf-syntax-ns#"
   xmlns:svg="http://www.w3.org/2000/svg"
   xmlns="http://www.w3.org/2000/svg"
   xmlns:sodipodi="http://sodipodi.sourceforge.net/DTD/sodipodi-0.dtd"
   xmlns:inkscape="http://www.inkscape.org/namespaces/inkscape"
   version="1.1"
   id="Layer_1"
   x="0px"
   y="0px"
   viewBox="0 0 50 50"
   style="enable-background:new 0 0 50 50;"
   xml:space="preserve"
   sodipodi:docname="body-paint-i.svg"
   inkscape:version="0.92.4 (5da689c313, 2019-01-14)"><metadata
     id="metadata28"><rdf:RDF><cc:Work
         rdf:about=""><dc:format>image/svg+xml</dc:format><dc:type
           rdf:resource="http://purl.org/dc/dcmitype/StillImage" /><dc:title></dc:title></cc:Work></rdf:RDF></metadata><defs
     id="defs26"><inkscape:path-effect
       effect="spiro"
       id="path-effect844"
       is_visible="true" /><inkscape:path-effect
       effect="simplify"
       id="path-effect842"
       is_visible="true"
       steps="1"
       threshold="0.00243902"
       smooth_angles="360"
       helper_size="0"
       simplify_individual_paths="false"
       simplify_just_coalesce="false"
       simplifyindividualpaths="false"
       simplifyJustCoalesce="false" /></defs><sodipodi:namedview
     pagecolor="#ff0000"
     bordercolor="#666666"
     borderopacity="1"
     objecttolerance="10"
     gridtolerance="10"
     guidetolerance="10"
     inkscape:pageopacity="0"
     inkscape:pageshadow="2"
     inkscape:window-width="3440"
     inkscape:window-height="1377"
     id="namedview24"
     showgrid="false"
     inkscape:zoom="17.76"
     inkscape:cx="29.272782"
     inkscape:cy="17.418582"
     inkscape:window-x="-8"
     inkscape:window-y="-8"
     inkscape:window-maximized="1"
     inkscape:current-layer="Layer_1" /><style
     type="text/css"
     id="style10">
	.st0{fill:#FFFFFF;}
</style><g
     id="Layer_2" /><g
     id="g15"
     style="fill:#ffffff;fill-opacity:1"
     transform="rotate(67.884692,20.045098,26.136933)"><path
       style="fill:#ffffff;fill-opacity:1"
       d="m 18.3,19.6 c 1.702472,0.228207 1.602654,2.305326 2.229687,3.511719 0.52585,1.495178 1.082705,2.979958 1.570313,4.488281 3.505693,0.03842 7.016721,0.0444 10.51875,0.142188 1.508725,0.242085 1.527623,1.994911 1.940625,3.139062 0.887116,2.622207 2.036086,5.542451 0.837335,8.261487 -0.968675,2.168257 -2.990633,3.817017 -5.219903,4.56737 -2.672449,0.749953 -5.177079,-0.845141 -7.604264,-1.722221 -2.650234,-1.083969 -5.361762,-2.029346 -7.990902,-3.155855 -1.499022,-0.72667 -1.178352,-3.115528 0.486718,-3.371484 1.372011,-0.286343 2.590741,0.740045 3.775684,1.270605 0.623425,0.260939 2.710918,1.706496 1.79026,0.03916 -1.417068,-5.007968 -2.990368,-9.972901 -4.35774,-14.99375 C 15.943188,20.550591 17.115016,19.473573 18.3,19.6 Z m 0.6,-3.3 c -2.322229,-0.202595 -5.028895,0.965627 -5.809079,3.311154 -0.840444,2.321479 0.489249,4.635086 1.016306,6.863846 0.551898,1.868961 1.090605,3.741997 1.592773,5.625 -3.034144,-0.287912 -5.8556372,2.611461 -5.424609,5.639453 0.223273,2.117952 1.887578,3.824676 3.874609,4.44375 3.830016,1.440308 7.629371,2.964381 11.425586,4.487695 2.830342,0.903026 6.041248,0.509613 8.485352,-1.217773 2.763956,-1.74562 5.043904,-4.568309 5.333905,-7.917242 0.352918,-3.124971 -0.959365,-6.084809 -1.822162,-9.017817 C 37.128789,26.546285 35.644038,24.571231 33.475,24.466992 30.521354,24.288212 27.552946,24.525875 24.6,24.3 23.843543,22.475748 23.464594,20.492633 22.525112,18.749112 21.736972,17.461078 20.380092,16.569641 18.9,16.3 Z"
       id="path13"
       inkscape:connector-curvature="0" /></g><path
     style="color:#000000;font-style:normal;font-variant:normal;font-weight:normal;font-stretch:normal;font-size:medium;line-height:normal;font-family:sans-serif;font-variant-ligatures:normal;font-variant-position:normal;font-variant-caps:normal;font-variant-numeric:normal;font-variant-alternates:normal;font-feature-settings:normal;text-indent:0;text-align:start;text-decoration:none;text-decoration-line:none;text-decoration-style:solid;text-decoration-color:#000000;letter-spacing:normal;word-spacing:normal;text-transform:none;writing-mode:lr-tb;direction:ltr;text-orientation:mixed;dominant-baseline:auto;baseline-shift:baseline;text-anchor:start;white-space:normal;shape-padding:0;clip-rule:nonzero;display:inline;overflow:visible;visibility:visible;opacity:1;isolation:auto;mix-blend-mode:normal;color-interpolation:sRGB;color-interpolation-filters:linearRGB;solid-color:#000000;solid-opacity:1;vector-effect:none;fill:#ffffff;fill-opacity:1;fill-rule:nonzero;stroke:none;stroke-width:3;stroke-linecap:butt;stroke-linejoin:round;stroke-miterlimit:4;stroke-dasharray:none;stroke-dashoffset:0;stroke-opacity:1;color-rendering:auto;image-rendering:auto;shape-rendering:auto;text-rendering:auto;enable-background:accumulate"
     d="m 20.916488,1.4932427 c -1.880852,0.027698 -3.758288,0.1823998 -5.595704,0.4375 -2.080992,0.2889174 -4.471558,0.9355587 -6.3554687,2.2773437 -0.9419551,0.6708925 -1.7724878,1.5471862 -2.2324218,2.6875 -0.4599341,1.1403138 -0.481885,2.5059559 -0.00781,3.8613276 0.4909627,1.403662 1.7602392,2.188114 3.0273438,2.587891 1.2671057,0.399776 2.6520157,0.26074 4.0988007,0.262247 3.259561,-0.194072 3.79548,-0.240098 7.421734,-0.701032 1.26474,-0.160761 2.785103,-0.326085 3.926732,-0.205746 1.141628,0.120338 2.039262,0.298519 2.669587,1.092799 0.414067,0.521772 0.808506,1.568173 0.423914,2.51705 -0.384589,0.948877 -1.025057,2.022576 -1.025057,2.022576 l 1.096391,1.115674 c 0,0 0.958068,-1.113164 1.527483,-2.518053 0.569415,-1.404888 0.90963,-2.852518 -0.461413,-4.580184 -1.219168,-1.536288 -2.44202,-1.935578 -4.113527,-1.958562 -2.507051,-0.03447 -2.929944,0.01769 -4.773912,0.170119 -1.513505,0.125111 -4.123831,0.301381 -6.659876,0.29874 -1.268022,-0.0013 -2.444735,-0.129668 -3.228515,-0.376953 C 9.8709884,10.236191 9.629171,9.9707429 9.5571122,9.7647271 9.2807458,8.974596 9.3277238,8.4788701 9.5141435,8.0166802 9.7005631,7.5544903 10.091559,7.0887511 10.70555,6.6514458 c 1.227982,-0.8746107 3.283229,-1.505629 5.029297,-1.7480469 6.89964,-0.9579211 14.1815,-0.3429868 19.615234,3.1289063 3.763529,2.4047128 4.614896,5.8266378 5.058489,10.0466988 0.251792,2.395391 -0.818041,6.124804 -3.163728,9.233864 -1.590881,2.108644 -5.037708,5.779685 -5.037708,5.779685 3.665783,-0.419849 7.406394,-1.073939 9.394425,3.758304 0,0 1.717219,-4.194846 2.558471,-5.934983 1.752831,-3.625751 2.079671,-8.394617 1.680286,-12.194116 C 45.264988,13.24845 42.062645,7.7569565 37.612839,4.9137452 32.881879,1.8908915 26.559043,1.4101486 20.916488,1.4932427 Z"
     id="path846"
     inkscape:connector-curvature="0"
     sodipodi:nodetypes="sssscscssccccssssscsssssssccssss" /></svg>