<?xml version="1.0" encoding="UTF-8" standalone="no"?>
<!-- Generator: Adobe Illustrator 19.2.0, SVG Export Plug-In . SVG Version: 6.00 Build 0)  -->

<svg
   xmlns:dc="http://purl.org/dc/elements/1.1/"
   xmlns:cc="http://creativecommons.org/ns#"
   xmlns:rdf="http://www.w3.org/1999/02/22-rdf-syntax-ns#"
   xmlns:svg="http://www.w3.org/2000/svg"
   xmlns="http://www.w3.org/2000/svg"
   xmlns:sodipodi="http://sodipodi.sourceforge.net/DTD/sodipodi-0.dtd"
   xmlns:inkscape="http://www.inkscape.org/namespaces/inkscape"
   version="1.1"
   id="Layer_1"
   x="0px"
   y="0px"
   viewBox="0 0 50 50"
   style="enable-background:new 0 0 50 50;"
   xml:space="preserve"
   sodipodi:docname="body-paint-a.svg"
   inkscape:version="0.92.4 (5da689c313, 2019-01-14)"><metadata
     id="metadata28"><rdf:RDF><cc:Work
         rdf:about=""><dc:format>image/svg+xml</dc:format><dc:type
           rdf:resource="http://purl.org/dc/dcmitype/StillImage" /><dc:title></dc:title></cc:Work></rdf:RDF></metadata><defs
     id="defs26"><inkscape:path-effect
       effect="spiro"
       id="path-effect844"
       is_visible="true" /><inkscape:path-effect
       effect="simplify"
       id="path-effect842"
       is_visible="true"
       steps="1"
       threshold="0.00243902"
       smooth_angles="360"
       helper_size="0"
       simplify_individual_paths="false"
       simplify_just_coalesce="false"
       simplifyindividualpaths="false"
       simplifyJustCoalesce="false" /></defs><sodipodi:namedview
     pagecolor="#ff0000"
     bordercolor="#666666"
     borderopacity="1"
     objecttolerance="10"
     gridtolerance="10"
     guidetolerance="10"
     inkscape:pageopacity="0"
     inkscape:pageshadow="2"
     inkscape:window-width="3440"
     inkscape:window-height="1377"
     id="namedview24"
     showgrid="false"
     inkscape:zoom="12.558216"
     inkscape:cx="12.089986"
     inkscape:cy="26.79681"
     inkscape:window-x="-8"
     inkscape:window-y="-8"
     inkscape:window-maximized="1"
     inkscape:current-layer="Layer_1" /><style
     type="text/css"
     id="style10">
	.st0{fill:#FFFFFF;}
</style><g
     id="Layer_2" /><g
     id="g15"
     style="fill:#000000;fill-opacity:1"
     transform="rotate(67.884692,20.045098,26.136933)"><path
       class="st0"
       d="m 18.3,19.6 c 0.7,0.1 1.2,0.5 1.4,1.1 0.4,1.3 2,5.6 2.4,6.9 2.2,0 7.9,0.1 9.9,0.1 0.2,0 0.6,0 0.8,0.1 0.5,0.1 0.8,0.4 1.1,0.9 0.1,0.2 0.2,0.4 0.2,0.6 0.8,2.9 0.7,2 1.5,4.9 0.8,3 0.1,5.7 -2.3,7.7 -1.9,1.6 -3.6,2.3 -5.7,1.9 C 27,43.7 26.4,43.5 25.8,43.3 22.2,41.8 18.5,40.4 14.9,39 14,38.6 13.5,37.8 13.6,37 c 0.1,-0.9 0.9,-1.5 1.8,-1.6 0.1,0 0.3,0 0.4,0 0.2,0 0.4,0.1 0.7,0.2 1.6,0.6 2.6,1.4 4.2,2 0,0 0,0 0,0 0,0 0.1,0 0.2,0 -0.1,-0.2 -0.1,-0.4 -0.2,-0.6 -1.4,-4.9 -2.9,-9.8 -4.3,-14.7 -0.2,-0.7 -0.3,-1.4 0.2,-2 0.4,-0.6 1,-0.8 1.7,-0.8 -0.1,0 -0.1,0 0,0.1 m 0.6,-3.3 c -0.1,0 -0.3,0 -0.4,-0.1 -1.9,-0.2 -3.6,0.6 -4.7,2.1 -1.5,2 -0.9,4.1 -0.7,4.8 0.9,3 1.8,6 2.6,9 -0.1,0 -0.3,0 -0.4,0 -2.5,0 -4.6,1.9 -5,4.3 -0.2,1.2 0.1,2.4 0.7,3.4 0.6,1 1.5,1.7 2.7,2.2 1.2,0.5 2.4,0.9 3.6,1.4 2.4,0.9 4.9,1.9 7.3,2.9 0.9,0.4 1.7,0.6 2.5,0.7 3.9,0.7 6.7,-1.2 8.5,-2.7 3.4,-2.8 4.6,-6.7 3.4,-11.1 -0.5,-1.7 -0.6,-2.1 -0.8,-2.7 -0.1,-0.4 -0.3,-1 -0.7,-2.2 -0.1,-0.4 -0.2,-0.7 -0.4,-1.1 -0.7,-1.5 -1.8,-2.5 -3.4,-2.7 -0.6,-0.1 -1.2,-0.1 -1.8,-0.1 -1.2,0 -3.4,0 -5.4,0 -0.6,0 -1.3,-0.1 -1.9,-0.1 -0.2,-0.6 -0.5,-1.3 -0.7,-2 -0.4,-1.1 -0.7,-2.1 -0.9,-2.6 -0.7,-1.8 -2.2,-3 -4.1,-3.4 z"
       id="path13"
       style="fill:#000000;fill-opacity:1"
       inkscape:connector-curvature="0" /></g><path
     style="color:#000000;font-style:normal;font-variant:normal;font-weight:normal;font-stretch:normal;font-size:medium;line-height:normal;font-family:sans-serif;font-variant-ligatures:normal;font-variant-position:normal;font-variant-caps:normal;font-variant-numeric:normal;font-variant-alternates:normal;font-feature-settings:normal;text-indent:0;text-align:start;text-decoration:none;text-decoration-line:none;text-decoration-style:solid;text-decoration-color:#000000;letter-spacing:normal;word-spacing:normal;text-transform:none;writing-mode:lr-tb;direction:ltr;text-orientation:mixed;dominant-baseline:auto;baseline-shift:baseline;text-anchor:start;white-space:normal;shape-padding:0;clip-rule:nonzero;display:inline;overflow:visible;visibility:visible;opacity:1;isolation:auto;mix-blend-mode:normal;color-interpolation:sRGB;color-interpolation-filters:linearRGB;solid-color:#000000;solid-opacity:1;vector-effect:none;fill:#000000;fill-opacity:1;fill-rule:nonzero;stroke:none;stroke-width:3;stroke-linecap:butt;stroke-linejoin:round;stroke-miterlimit:4;stroke-dasharray:none;stroke-dashoffset:0;stroke-opacity:1;color-rendering:auto;image-rendering:auto;shape-rendering:auto;text-rendering:auto;enable-background:accumulate"
     d="m 20.916488,1.4932427 c -1.880852,0.027698 -3.758288,0.1823998 -5.595704,0.4375 -2.080992,0.2889174 -4.471558,0.9355587 -6.3554687,2.2773437 -0.9419551,0.6708925 -1.7724878,1.5471862 -2.2324218,2.6875 -0.4599341,1.1403138 -0.481885,2.5059559 -0.00781,3.8613276 0.4909627,1.403662 1.7602392,2.188114 3.0273438,2.587891 1.2671057,0.399776 2.6520157,0.26074 4.0988007,0.262247 3.259561,-0.194072 3.79548,-0.240098 7.421734,-0.701032 1.26474,-0.160761 2.785103,-0.326085 3.926732,-0.205746 1.141628,0.120338 2.039262,0.298519 2.669587,1.092799 0.414067,0.521772 0.808506,1.568173 0.423914,2.51705 -0.384589,0.948877 -1.025057,2.022576 -1.025057,2.022576 l 1.096391,1.115674 c 0,0 0.958068,-1.113164 1.527483,-2.518053 0.569415,-1.404888 0.90963,-2.852518 -0.461413,-4.580184 -1.219168,-1.536288 -2.44202,-1.935578 -4.113527,-1.958562 -2.507051,-0.03447 -2.929944,0.01769 -4.773912,0.170119 -1.513505,0.125111 -4.123831,0.301381 -6.659876,0.29874 -1.268022,-0.0013 -2.444735,-0.129668 -3.228515,-0.376953 C 9.8709884,10.236191 9.629171,9.9707429 9.5571122,9.7647271 9.2807458,8.974596 9.3277238,8.4788701 9.5141435,8.0166802 9.7005631,7.5544903 10.091559,7.0887511 10.70555,6.6514458 c 1.227982,-0.8746107 3.283229,-1.505629 5.029297,-1.7480469 6.89964,-0.9579211 14.1815,-0.3429868 19.615234,3.1289063 3.763529,2.4047128 4.614896,5.8266378 5.058489,10.0466988 0.251792,2.395391 -0.818041,6.124804 -3.163728,9.233864 -1.590881,2.108644 -5.037708,5.779685 -5.037708,5.779685 3.665783,-0.419849 7.406394,-1.073939 9.394425,3.758304 0,0 1.717219,-4.194846 2.558471,-5.934983 1.752831,-3.625751 2.079671,-8.394617 1.680286,-12.194116 C 45.264988,13.24845 42.062645,7.7569565 37.612839,4.9137452 32.881879,1.8908915 26.559043,1.4101486 20.916488,1.4932427 Z"
     id="path846"
     inkscape:connector-curvature="0"
     sodipodi:nodetypes="sssscscssccccssssscsssssssccssss" /></svg>