<?xml version="1.0" encoding="UTF-8" standalone="no"?>
<svg
   xmlns:dc="http://purl.org/dc/elements/1.1/"
   xmlns:cc="http://creativecommons.org/ns#"
   xmlns:rdf="http://www.w3.org/1999/02/22-rdf-syntax-ns#"
   xmlns:svg="http://www.w3.org/2000/svg"
   xmlns="http://www.w3.org/2000/svg"
   xmlns:sodipodi="http://sodipodi.sourceforge.net/DTD/sodipodi-0.dtd"
   xmlns:inkscape="http://www.inkscape.org/namespaces/inkscape"
   version="1.1"
   id="Capa_1"
   x="0px"
   y="0px"
   width="385.419px"
   height="385.419px"
   viewBox="0 0 385.419 385.419"
   style="enable-background:new 0 0 385.419 385.419;"
   xml:space="preserve"
   sodipodi:docname="blocks-active.svg"
   inkscape:version="1.0.1 (3bc2e813f5, 2020-09-07)"><metadata
   id="metadata1005"><rdf:RDF><cc:Work
       rdf:about=""><dc:format>image/svg+xml</dc:format><dc:type
         rdf:resource="http://purl.org/dc/dcmitype/StillImage" /><dc:title></dc:title></cc:Work></rdf:RDF></metadata><defs
   id="defs1003" /><sodipodi:namedview
   pagecolor="#ffffff"
   bordercolor="#666666"
   borderopacity="1"
   objecttolerance="10"
   gridtolerance="10"
   guidetolerance="10"
   inkscape:pageopacity="0"
   inkscape:pageshadow="2"
   inkscape:window-width="1920"
   inkscape:window-height="1017"
   id="namedview1001"
   showgrid="false"
   inkscape:zoom="1.5594477"
   inkscape:cx="119.64334"
   inkscape:cy="189.27158"
   inkscape:window-x="-8"
   inkscape:window-y="-8"
   inkscape:window-maximized="1"
   inkscape:current-layer="g968"
   inkscape:pagecheckerboard="true" />
<g
   id="g968">
	<path
   d="m 202.491,326.54361 -0.231,-107.449 -92.494,-53.907 -92.326998,53.712 0.225,108.29 92.101998,53.475 z m -83.342,26.994 0.165,-75.232 64.289,-37.558 0.165,75.067 z m -9.396,-166.706 64.603,37.658 -64.384,37.606 -64.604998,-37.8 z m -73.556998,53.77 64.410998,37.691 -0.164,75.335 -64.091998,-37.217 z"
   id="path962"
   style="fill:#000000" />
	<path
   d="m 275.48839,162.01957 -92.324,53.706 0.231,108.29 92.104,53.475 92.714,-54.121 -0.231,-107.449 z m -0.013,21.638 64.605,37.658 -64.386,37.606 -64.606,-37.801 z m -73.556,53.77 64.404,37.691 -0.164,75.335 -64.076,-37.217 z m 82.958,112.936 0.159,-75.232 64.289,-37.558 0.164,75.067 z"
   id="path964"
   style="fill:#000000" />
	<path
   d="m 286.01285,68.635283 -92.497,-53.892 -92.324,53.697 0.222,108.294997 92.102,53.479 92.717,-54.121 z m -92.509,-32.257 64.609,37.649 -64.384,37.618997 -64.609,-37.810997 z m -73.558,53.766 64.411,37.697997 -0.161,75.335 -64.095,-37.211 z m 82.95,112.941997 0.162,-75.234 64.292,-37.563997 0.164,75.072997 z"
   id="path966"
   style="fill:#000000" />
</g>
<g
   id="g970">
</g>
<g
   id="g972">
</g>
<g
   id="g974">
</g>
<g
   id="g976">
</g>
<g
   id="g978">
</g>
<g
   id="g980">
</g>
<g
   id="g982">
</g>
<g
   id="g984">
</g>
<g
   id="g986">
</g>
<g
   id="g988">
</g>
<g
   id="g990">
</g>
<g
   id="g992">
</g>
<g
   id="g994">
</g>
<g
   id="g996">
</g>
<g
   id="g998">
</g>
</svg>
